# xmcd
#
# Track frame offsets:
#	150
#	11409
#	19763
#	30811
#	47334
#	59556
#	75202
#	85749
#	100909
#	110030
#	123088
#	130240
#	140850
#	155729
#	167920
#	175228
#	186308
#	196952
#
# Disc length: 2765 seconds
#
# Revision: 2
# Processed by: cddbd v1.5.2PL0 Copyright (c) Steve Scherf et al.
# Submitted via: audiograbber 1.83.01
#
DISCID=e60acb12
DTITLE=Astrud Gilberto - Non-Stop To Brazil (Verve Jazz Club)
DYEAR=2006
DGENRE=Jazz
TTITLE0=Take me to Aruanda
TTITLE1=Bim bom
TTITLE2=I had the craziest dream
TTITLE3=Tú, mi delirio
TTITLE4=On my mind
TTITLE5=Look to the rainbow
TTITLE6=Aqua de beber
TTITLE7=Call me
TTITLE8=Oba, oba
TTITLE9=Never my love
TTITLE10=Crickets sing for Anamaria
TTITLE11=Fly me to the moon
TTITLE12=Lugar bonito (pretty place)
TTITLE13=Meditation
TTITLE14=Nao bate o Coracao
TTITLE15=Non-stop to Brazil
TTITLE16=Só tinha de ser com vocé
TTITLE17=Nega do cabelo duro
EXTD=YEAR: 2006
EXTT0=
EXTT1=
EXTT2=
EXTT3=
EXTT4=
EXTT5=
EXTT6=
EXTT7=
EXTT8=
EXTT9=
EXTT10=
EXTT11=
EXTT12=
EXTT13=
EXTT14=
EXTT15=
EXTT16=
EXTT17=
PLAYORDER=
